Coordinates
version=1
nRows=60
nColumns=12
inDegrees=yes

Units are S.I. units (second, meters, Newtons, ...)
Angles are in degrees

endheader
time	SC_y	SC_z	SC_x	AC_y	AC_z	AC_x	GH_y	GH_z	GH_yy	EL_x	PS_y
       0.0              -52.87         -4.444          61.18          39.71         -2.687         0.7133          7.964          5.054          112.7          17.45          57.27
   0.02721              -52.87         -4.441          61.18          39.71         -2.689         0.7159          7.953          5.059          112.7          17.45          57.28
   0.05443              -52.87         -4.439          61.17          39.72         -2.691         0.7186          7.942          5.064          112.6          17.46          57.29
   0.08164              -52.86         -4.435          61.17          39.72         -2.693         0.7215           7.93           5.07          112.6          17.47           57.3
    0.1089              -52.86         -4.432          61.16          39.72         -2.696         0.7246          7.917          5.076          112.6          17.48           57.3
    0.1361              -52.86         -4.429          61.15          39.72         -2.698         0.7279          7.904          5.082          112.6          17.49          57.31
    0.1633              -52.85         -4.425          61.15          39.72         -2.701         0.7315          7.889          5.089          112.6           17.5          57.32
    0.1905              -52.85         -4.421          61.14          39.73         -2.704         0.7352          7.873          5.096          112.6          17.51          57.33
    0.2177              -52.84         -4.417          61.13          39.73         -2.707         0.7393          7.857          5.104          112.5          17.52          57.34
    0.2449              -52.84         -4.413          61.12          39.73          -2.71         0.7436          7.839          5.112          112.5          17.53          57.35
    0.2721              -52.83         -4.408          61.11          39.74         -2.714         0.7483           7.82          5.121          112.5          17.54          57.37
    0.2993              -52.83         -4.403           61.1          39.74         -2.718         0.7533          7.799          5.131          112.5          17.55          57.38
    0.3266              -52.82         -4.397          61.09          39.74         -2.722         0.7587          7.777          5.142          112.4          17.57          57.39
    0.3538              -52.81         -4.391          61.08          39.75         -2.727         0.7645          7.753          5.153          112.4          17.58          57.41
     0.381              -52.81         -4.384          61.06          39.75         -2.732         0.7709          7.727          5.165          112.4           17.6          57.42
    0.4082               -52.8         -4.377          61.05          39.76         -2.737         0.7777          7.699          5.178          112.3          17.62          57.44
    0.4354              -52.79         -4.369          61.03          39.76         -2.743         0.7852          7.668          5.193          112.3          17.64          57.46
    0.4626              -52.78         -4.361          61.01          39.77         -2.749         0.7933          7.634          5.208          112.2          17.66          57.48
    0.4898              -52.77         -4.352           61.0          39.77         -2.756         0.8022          7.598          5.225          112.2          17.68          57.51
     0.517              -52.76         -4.342          60.98          39.78         -2.764         0.8119          7.558          5.244          112.1          17.71          57.53
    0.5443              -52.74         -4.331          60.95          39.79         -2.772         0.8225          7.514          5.265          112.1          17.74          57.56
    0.5715              -52.73         -4.319          60.93           39.8         -2.781         0.8342          7.466          5.287          112.0          17.77          57.59
    0.5987              -52.71         -4.305           60.9           39.8         -2.791         0.8472          7.413          5.312          112.0           17.8          57.62
    0.6259               -52.7          -4.29          60.87          39.81         -2.802         0.8615          7.354           5.34          111.9          17.84          57.66
    0.6531              -52.68         -4.274          60.84          39.82         -2.815         0.8775          7.288          5.371          111.8          17.89           57.7
    0.6803              -52.66         -4.255           60.8          39.84         -2.829         0.8953          7.215          5.405          111.7          17.93          57.75
    0.7075              -52.63         -4.234          60.76          39.85         -2.844         0.9152          7.133          5.444          111.6          17.99           57.8
    0.7348              -52.61         -4.211          60.71          39.87         -2.862         0.9377           7.04          5.487          111.5          18.05          57.86
     0.762              -52.58         -4.185          60.66          39.88         -2.881          0.963          6.936          5.536          111.3          18.11          57.92
    0.7892              -52.54         -4.155          60.59           39.9         -2.904         0.9918          6.817          5.592          111.2          18.19           58.0
    0.8164               -52.5         -4.121          60.52          39.93         -2.929          1.025          6.682          5.655          111.0          18.28          58.08
    0.8436              -52.46         -4.082          60.44          39.95         -2.959          1.062          6.527          5.728          110.8          18.38          58.18
    0.8708              -52.41         -4.037          60.35          39.98         -2.993          1.106          6.348          5.812          110.6           18.5           58.3
     0.898              -52.35         -3.984          60.25          40.02         -3.032          1.156           6.14           5.91          110.3          18.63          58.43
    0.9252              -52.28         -3.923          60.12          40.06         -3.078          1.216          5.896          6.024          110.0          18.79          58.58
    0.9525              -52.19          -3.85          59.97          40.11         -3.133          1.285          5.609          6.159          109.6          18.98          58.76
    0.9797              -52.09         -3.764           59.8          40.16         -3.197          1.368          5.268          6.319          109.2           19.2          58.98
     1.007              -51.98         -3.661          59.59          40.23         -3.275          1.468          4.859          6.511          108.6          19.46          59.24
     1.034              -51.83         -3.537          59.33          40.31         -3.368          1.588          4.364          6.743          108.0          19.78          59.55
     1.061              -51.66         -3.384          59.02          40.41         -3.483          1.735          3.759          7.027          107.2          20.18          59.93
     1.089              -51.44         -3.196          58.64          40.54         -3.624          1.916          3.013          7.377          106.2          20.66           60.4
     1.116              -51.17         -2.962          58.16           40.7           -3.8          2.142          2.083          7.813          105.0          21.26          60.99
     1.143              -50.83         -2.666          57.55          40.89         -4.022          2.427         0.9111          8.363          103.5          22.03          61.73
      1.17               -50.4         -2.291          56.79          41.14         -4.304          2.789        -0.5787          9.062          101.6          22.99          62.68
     1.197              -49.85          -1.81           55.8          41.46         -4.665          3.252         -2.486          9.957          99.11          24.23          63.88
     1.225              -49.14         -1.193          54.54          41.87         -5.128          3.847         -4.933           11.1          95.93          25.82          65.43
     1.252              -48.24        -0.4054          52.93          42.39          -5.72          4.606         -8.059          12.57          91.87          27.85          67.41
     1.279               -47.1         0.5853          50.91          43.05         -6.464          5.561         -11.99          14.42          86.76           30.4          69.89
     1.306              -45.72          1.793          48.44          43.85          -7.37          6.725         -16.78          16.66          80.54          33.51          72.92
     1.333              -44.11          3.192          45.59          44.78         -8.421          8.073         -22.33          19.27          73.33          37.11          76.43
     1.361              -42.37          4.707          42.49          45.78         -9.559          9.534         -28.34          22.09          65.53          41.01          80.23
     1.388              -40.63          6.223           39.4          46.79          -10.7          10.99         -34.35          24.91          57.72          44.91          84.03
     1.415              -39.03          7.622          36.54          47.72         -11.75          12.34          -39.9          27.51          50.51          48.52          87.55
     1.442              -37.64          8.829          34.07          48.52         -12.65          13.51         -44.69          29.76          44.29          51.63          90.57
      1.47               -36.5           9.82          32.05          49.18          -13.4          14.46         -48.62           31.6          39.19          54.18          93.06
     1.497               -35.6          10.61          30.44           49.7         -13.99          15.22         -51.75          33.07          35.13          56.21          95.04
     1.524              -34.89          11.22          29.18          50.11         -14.45          15.82          -54.2          34.22          31.95           57.8          96.58
     1.551              -34.34          11.71          28.19          50.43         -14.81          16.28          -56.1          35.11          29.47          59.03          97.79
     1.578              -33.91          12.08          27.43          50.68          -15.1          16.64         -57.59          35.81          27.54           60.0          98.73
     1.606              -33.57          12.38          26.82          50.87         -15.32          16.93         -58.77          36.36          26.01          60.76          99.47
